<?xml version="1.0" encoding="UTF-8" standalone="no"?>
<!-- Created with Inkscape (http://www.inkscape.org/) -->

<svg
   xmlns:dc="http://purl.org/dc/elements/1.1/"
   xmlns:cc="http://creativecommons.org/ns#"
   xmlns:rdf="http://www.w3.org/1999/02/22-rdf-syntax-ns#"
   xmlns:svg="http://www.w3.org/2000/svg"
   xmlns="http://www.w3.org/2000/svg"
   xmlns:sodipodi="http://sodipodi.sourceforge.net/DTD/sodipodi-0.dtd"
   xmlns:inkscape="http://www.inkscape.org/namespaces/inkscape"
   width="800"
   height="800"
   viewBox="0 0 211.66666 211.66667"
   version="1.1"
   id="svg8"
   inkscape:version="0.92.2 (5c3e80d, 2017-08-06)"
   sodipodi:docname="fubarnetes.svg"
   inkscape:export-filename="/home/plonk/fubarnetes.png"
   inkscape:export-xdpi="96"
   inkscape:export-ydpi="96">
  <defs
     id="defs2" />
  <sodipodi:namedview
     id="base"
     pagecolor="#ffffff"
     bordercolor="#666666"
     borderopacity="1.0"
     inkscape:pageopacity="0.0"
     inkscape:pageshadow="2"
     inkscape:zoom="0.24748737"
     inkscape:cx="-1227.1565"
     inkscape:cy="317.09676"
     inkscape:document-units="mm"
     inkscape:current-layer="layer1"
     showgrid="false"
     showguides="true"
     inkscape:guide-bbox="true"
     units="px"
     inkscape:window-width="1596"
     inkscape:window-height="861"
     inkscape:window-x="0"
     inkscape:window-y="37"
     inkscape:window-maximized="0">
    <sodipodi:guide
       position="-126.06517,260.51386"
       orientation="0,1"
       id="guide3744"
       inkscape:locked="false" />
  </sodipodi:namedview>
  <metadata
     id="metadata5">
    <rdf:RDF>
      <cc:Work
         rdf:about="">
        <dc:format>image/svg+xml</dc:format>
        <dc:type
           rdf:resource="http://purl.org/dc/dcmitype/StillImage" />
        <dc:title></dc:title>
      </cc:Work>
    </rdf:RDF>
  </metadata>
  <g
     inkscape:label="Layer 1"
     inkscape:groupmode="layer"
     id="layer1"
     transform="translate(0,-85.333317)">
    <g
       id="g3753"
       transform="matrix(0.58325977,0,0,0.58325977,199.75274,107.52939)">
      <path
         style="fill:#000000;stroke-width:0.07554445"
         d="m -129.11241,209.60577 c -2.09659,-0.0653 -5.92443,-0.39266 -8.30989,-0.71062 -13.99091,-1.8648 -27.45794,-7.19723 -38.9054,-15.40504 -18.75898,-13.45017 -31.39918,-33.67112 -35.15673,-56.24144 -0.82447,-4.95235 -1.16692,-9.15459 -1.16966,-14.35345 -0.002,-3.34462 0.0733,-5.13689 0.33464,-7.99398 1.32501,-14.48298 6.10714,-28.044235 14.16369,-40.165595 4.21393,-6.34001 9.27697,-12.12536 15.03774,-17.18307 17.95583,-15.76445 41.37241,-23.36673 65.26173,-21.18748 9.26339,0.84504 18.144394,3.12192 26.704974,6.84655 1.50474,0.6547 5.28811,2.47339 5.28811,2.54203 0,0.0209 -0.46744,0.30175 -1.03874,0.62413 -1.54332,0.87088 -4.1766,2.4295 -5.56019,3.29104 l -1.21992,0.75962 -0.56659,-0.0906 c -0.87403,-0.13973 -2.74196,-0.18617 -3.48684,-0.0867 -2.410504,0.3219 -4.097804,1.36846 -5.102364,3.16477 -1.40233,2.5076 -1.19247,6.55256 0.58286,11.23448 1.10679,2.91883 3.274904,7.0391 5.291044,10.0551 3.03145,4.53481 6.56447,8.43074 12.12059,13.36567 7.47886,6.64269 15.77323,11.207775 21.82426,12.011725 1.40918,0.18722 3.35732,0.12671 4.35276,-0.1352 2.50937,-0.66024 4.05523,-2.23614 4.70059,-4.791915 0.14841,-0.58778 0.16797,-0.85901 0.16782,-2.3273 0,-1.7753 -0.08,-2.40887 -0.52293,-4.15321 -0.10528,-0.41454 -0.1914,-0.8003 -0.1914,-0.85725 0,-0.057 0.36194,-0.70363 0.80432,-1.43708 0.8606,-1.42683 2.56369,-4.37931 3.15916,-5.47671 l 0.36254,-0.66812 0.59301,1.08362 c 2.49959,4.56753 4.84132,10.05068 6.46377,15.13489 4.05448,12.705355 5.11541,26.348595 3.08116,39.623055 -2.22431,14.51475 -8.07265,28.12711 -17.13293,39.87786 -3.45544,4.48155 -7.89038,9.13306 -12.35111,12.95429 -9.22901,7.90589 -20.3557,13.91336 -32.044124,17.30111 -8.93655,2.59016 -17.89883,3.69507 -27.53595,3.39478 z M -68.185806,92.751175 c -1.15768,-0.16062 -2.14716,-0.39925 -3.44949,-0.8319 -6.81221,-2.26309 -14.38157,-8.14347 -19.89277,-15.45403 -4.91236,-6.5162 -7.21983,-13.21171 -6.00176,-17.41502 0.32665,-1.12719 0.71275,-1.77243 1.57796,-2.63704 2.47871,-2.47695 11.71554,-8.38301 20.57597,-13.15634 1.90073,-1.02397 6.42813,-3.28638 8.28548,-4.14038 7.68494,-3.5335 13.87439,-5.5347 18.712,-6.05005 1.52826,-0.16281 3.61749,-0.10885 4.70561,0.12152 3.91601,0.82908 5.70465,3.37527 5.70361,8.11929 -8.6e-4,2.25685 -0.29713,4.2487 -1.09129,7.32781 -1.68772,6.54369 -5.69692,15.64161 -11.1936,25.40123 -4.20065,7.45846 -9.51143,15.49549 -11.35814,17.18876 -1.48167,1.35855 -3.83823,1.90566 -6.57358,1.52615 z M -205.9956,74.829515 c -6.38628,-11.51602 -10.57629,-21.70641 -11.87315,-28.87631 -0.32045,-1.77166 -0.42895,-2.74489 -0.47585,-4.26826 -0.0738,-2.39729 0.22532,-4.1036 0.99321,-5.66583 0.71199,-1.44853 1.58285,-2.31954 3.02484,-3.02538 0.83996,-0.41116 1.7538,-0.68959 2.87068,-0.87464 0.78433,-0.12996 3.66935,-0.13108 4.72153,-0.002 6.17703,0.75873 14.01813,3.50235 23.68319,8.2868 3.68861,1.82596 8.83305,4.58975 8.7859,4.72012 -0.0125,0.0346 -0.61766,0.44194 -1.34477,0.9052 -3.92192,2.49873 -8.00187,5.6184 -11.70939,8.9534 -2.60414,2.34248 -6.27033,6.15129 -8.57853,8.91224 -3.17903,3.8026 -6.23715,8.13508 -8.59845,12.18154 -0.20003,0.34279 -0.38596,0.623 -0.41317,0.62269 -0.0272,-2.8e-4 -0.51593,-0.84168 -1.08604,-1.86972 z"
         id="path3740"
         inkscape:connector-curvature="0" />
      <path
         id="path3725"
         transform="scale(0.26458333)"
         d="m -474.97852,136.05859 c -79.86587,-0.1983 -156.67922,28.39752 -217.12109,81.46289 -21.77299,19.11576 -40.90927,40.98112 -56.83594,64.94336 -16.55588,24.9089 -29.44437,51.43049 -38.57226,79.24219 -4.24837,0.67927 -12.14685,-1.19288 -28.9961,-4.87109 -27.51575,-6.00669 -51.28095,-6.47656 -77.1582,-1.52539 -81.32047,15.55919 -144.34779,75.31953 -163.24609,154.78515 l -5.3828,22.62891 -13.4863,0.0254 c -46.7235,0.10061 -100.7456,33.369 -127.6075,78.58398 -15.676,26.38674 -22.23,49.88111 -22.4257,80.39649 -0.2028,31.523 3.0899,46.23379 16.6972,74.61328 18.8105,39.23123 53.6951,69.94783 94.8613,83.5293 17.2464,5.68977 24.5178,6.67854 51.295,6.9707 l 31.1992,0.33984 17.7266,19.25 c 21.5739,23.42873 49.74016,44.70345 77.60151,58.61329 24.63716,12.30019 39.19475,17.30279 68.0293,23.38281 v 0.002 c 12.08621,2.54856 28.16114,4.05144 44.61328,4.48438 h 19.83008 c 13.28953,-0.36415 25.86035,-1.4637 35.69922,-3.33008 22.09961,-4.19229 55.35146,-14.94807 71.62304,-23.16797 18.00239,-9.0943 49.25153,-30.26202 62.85352,-42.57617 l 12.70508,-11.50196 15.32226,12.34766 c 19.8553,15.99961 53.24902,33.15291 77.24414,39.67773 27.0742,7.36234 74.73745,7.30528 102.19141,-0.12304 51.05193,-13.8135 98.95136,-48.655 121.72461,-88.53907 3.01516,-5.28055 6.35135,-9.6078 7.41406,-9.61914 1.06271,-0.0104 6.28505,2.20171 11.60547,4.91602 31.17978,15.90671 96.16898,20.72229 135.6875,10.05469 C -55.071291,825.46037 8.9354596,742.35715 8.6210938,645.25391 8.345754,560.10417 -37.93037,487.8884 -115.21484,452.00391 c -10.99683,-5.10611 -23.55873,-10.03295 -27.91602,-10.94922 -1.93234,-0.40643 -3.80084,-0.96155 -5.36328,-1.54883 -1.91183,-25.46492 -6.76426,-50.66299 -14.51563,-74.95313 -6.13209,-19.21591 -14.98241,-39.94002 -24.42968,-57.20312 l -2.24024,-4.0957 -1.37109,2.52539 c -0.23035,0.4245 -0.6547,1.17277 -0.96484,1.73047 -0.005,0.01 -0.0122,0.0196 -0.0176,0.0293 -1.33093,2.39277 -3.29151,5.83373 -5.2793,9.27344 -0.11155,0.19281 -0.21846,0.37573 -0.33008,0.56836 -1.96063,3.38701 -3.94435,6.77104 -5.34765,9.09766 -1.254,2.07906 -2.33737,3.97457 -2.80079,4.88281 -0.15447,0.30274 -0.24023,0.49497 -0.24023,0.54883 0,0.21524 0.3267,1.67347 0.72461,3.24023 0.62777,2.47229 1.06295,4.3552 1.36133,6.0957 0.0995,0.58018 0.18268,1.14361 0.2539,1.70899 0.14243,1.13073 0.23261,2.26604 0.28711,3.53711 0.0545,1.27108 0.0742,2.67802 0.0742,4.35547 2.9e-4,2.77472 -0.0189,4.41883 -0.10742,5.64648 -0.0887,1.22785 -0.24688,2.03963 -0.52734,3.15039 -0.45735,1.81118 -1.03423,3.49254 -1.73243,5.04492 -0.23273,0.51746 -0.47854,1.01887 -0.73828,1.50782 -0.25997,0.48948 -0.53317,0.96475 -0.82031,1.42578 -0.5737,0.92108 -1.20192,1.78555 -1.88476,2.59375 -0.34143,0.40409 -0.69753,0.79387 -1.06641,1.16992 -0.36857,0.37569 -0.75039,0.73812 -1.14649,1.08594 -0.79292,0.69625 -1.64098,1.33661 -2.54492,1.92187 -2.25984,1.46315 -4.86821,2.58152 -7.83203,3.36133 -1.41086,0.37121 -3.32881,0.63531 -5.45508,0.7832 -1.4169,0.0985 -2.92682,0.14417 -4.4414,0.13672 -0.75828,-0.004 -1.51793,-0.0213 -2.26758,-0.0527 -0.74836,-0.0313 -1.48728,-0.0753 -2.20508,-0.13477 -6.7e-4,-5e-5 -0.001,6e-5 -0.002,0 -0.7184,-0.0595 -1.41433,-0.1342 -2.08008,-0.22266 -0.7153,-0.095 -1.43839,-0.20352 -2.16992,-0.32617 -0.7309,-0.12252 -1.46845,-0.25849 -2.21485,-0.4082 -2.23976,-0.44923 -4.54741,-1.02004 -6.91406,-1.70703 -0.78808,-0.22875 -1.58207,-0.47027 -2.38281,-0.72461 -5.8e-4,-1.9e-4 -0.001,1.8e-4 -0.002,0 -2.40352,-0.76351 -4.86231,-1.64184 -7.36719,-2.62891 -5.6e-4,-2.2e-4 -0.001,2.2e-4 -0.002,0 -0.83515,-0.3291 -1.67452,-0.67025 -2.51953,-1.02343 -5.07058,-2.11926 -10.31186,-4.66832 -15.64843,-7.60547 -1.77866,-0.97895 -3.56637,-2.00086 -5.36328,-3.06446 -12.57862,-7.44511 -25.53573,-16.92618 -37.90235,-27.91015 -9.18728,-8.16013 -16.91052,-15.56804 -23.65234,-22.75586 -3.85242,-4.10737 -7.38459,-8.14269 -10.68555,-12.20508 -4.12626,-5.07795 -7.8922,-10.19861 -11.47266,-15.55469 -3.80973,-5.69909 -7.76368,-12.44205 -11.2871,-19.13867 -2.8e-4,-5.2e-4 2.7e-4,-10e-4 0,-0.002 -0.88091,-1.67428 -1.73449,-3.34458 -2.55274,-4.9961 -2.45476,-4.95455 -4.58757,-9.73026 -6.15625,-13.86718 -0.41937,-1.10597 -0.81635,-2.20274 -1.18945,-3.28907 -1.49218,-4.34463 -2.61459,-8.52617 -3.36328,-12.49023 -1.2e-4,-6.4e-4 1.2e-4,-0.001 0,-0.002 -0.37423,-1.98164 -0.65442,-3.90879 -0.8418,-5.77539 -7e-5,-6.6e-4 7e-5,-0.001 0,-0.002 -0.18738,-1.86719 -0.28153,-3.67332 -0.28125,-5.41211 2.7e-4,-1.73879 0.0946,-3.40876 0.2832,-5.00586 0.28294,-2.39563 0.77767,-4.62463 1.48633,-6.66406 0.47244,-1.35962 1.04061,-2.63562 1.70313,-3.82031 0.47432,-0.84817 0.98978,-1.65222 1.54492,-2.41211 3e-4,-4.2e-4 -3.1e-4,-0.002 0,-0.002 0.27744,-0.37972 0.56554,-0.74773 0.86328,-1.10547 3.1e-4,-3.8e-4 -3.1e-4,-0.002 0,-0.002 3.87513,-4.65544 9.47266,-7.45094 16.875,-8.43945 1.40764,-0.18797 3.87617,-0.23879 6.40625,-0.17578 1.84616,0.046 3.71777,0.15393 5.24023,0.31055 0.0418,0.004 0.0915,0.007 0.13282,0.0117 0.51542,0.0547 0.98698,0.11554 1.40039,0.18164 l 2.14062,0.34179 4.61133,-2.87109 c 3.92259,-2.44253 10.5006,-6.36644 16.00586,-9.56445 1.83503,-1.06602 3.54956,-2.05017 5.00781,-2.87305 0.95259,-0.53753 1.76508,-1.01231 2.44727,-1.41797 0.86365,-0.51373 1.48047,-0.89726 1.48047,-0.94141 0,-0.25942 -14.30108,-7.13296 -19.98829,-9.60742 -32.35494,-14.07734 -65.9204,-22.6831 -100.93164,-25.87695 -9.8755,-0.90087 -19.72902,-1.36041 -29.53711,-1.38477 z"
         style="fill:#1a1a1a;stroke-width:0.28552231"
         inkscape:connector-curvature="0" />
      <path
         sodipodi:nodetypes="scsccssccccscs"
         inkscape:connector-curvature="0"
         id="path3710"
         d="m -68.185806,92.751175 c -1.15768,-0.16062 -2.14716,-0.39925 -3.44949,-0.8319 -6.81221,-2.26309 -14.38157,-8.14347 -19.89277,-15.45403 -4.91236,-6.5162 -7.21983,-13.21171 -6.00176,-17.41502 0.32665,-1.12719 0.71275,-1.77243 1.57796,-2.63704 2.47871,-2.47695 11.71554,-8.38301 20.57597,-13.15634 1.90073,-1.02397 6.42813,-3.28638 8.28548,-4.14038 7.68494,-3.5335 13.87439,-5.5347 18.712,-6.05005 1.52826,-0.16281 3.61749,-0.10885 4.70561,0.12152 3.91601,0.82908 5.70465,3.37527 5.70361,8.11929 -8.6e-4,2.25685 -0.29713,4.2487 -1.09129,7.32781 -1.68772,6.54369 -5.69692,15.64161 -11.1936,25.40123 -4.20065,7.45846 -9.51143,15.49549 -11.35814,17.18876 -1.48167,1.35855 -3.83823,1.90566 -6.57358,1.52615 z"
         style="fill:#ff0000;stroke-width:0.07554445" />
      <path
         style="fill:#ff0000;stroke-width:0.07554445"
         d="m -205.9956,74.829515 c -6.38628,-11.51602 -10.57629,-21.70641 -11.87315,-28.87631 -0.32045,-1.77166 -0.42895,-2.74489 -0.47585,-4.26826 -0.0738,-2.39729 0.22532,-4.1036 0.99321,-5.66583 0.71199,-1.44853 1.58285,-2.31954 3.02484,-3.02538 0.83996,-0.41116 1.7538,-0.68959 2.87068,-0.87464 0.78433,-0.12996 3.66935,-0.13108 4.72153,-0.002 6.17703,0.75873 14.01813,3.50235 23.68319,8.2868 3.68861,1.82596 8.83305,4.58975 8.7859,4.72012 -0.0125,0.0346 -0.61766,0.44194 -1.34477,0.9052 -3.92192,2.49873 -8.00187,5.6184 -11.70939,8.9534 -2.60414,2.34248 -6.27033,6.15129 -8.57853,8.91224 -3.17903,3.8026 -6.23715,8.13508 -8.59845,12.18154 -0.20003,0.34279 -0.38596,0.623 -0.41317,0.62269 -0.0272,-2.8e-4 -0.51593,-0.84168 -1.08604,-1.86972 z"
         id="path3747"
         inkscape:connector-curvature="0"
         sodipodi:nodetypes="cscccccsccsccccc" />
    </g>
  </g>
</svg>
